<svg width="16" height="13" viewBox="0 0 16 13" fill="none" xmlns="http://www.w3.org/2000/svg">
<path d="M10.5 12.5V11.1667C10.5 10.4594 10.219 9.78115 9.71895 9.28105C9.21885 8.78095 8.54058 8.5 7.83333 8.5H3.16667C2.45942 8.5 1.78115 8.78095 1.28105 9.28105C0.780952 9.78115 0.5 10.4594 0.5 11.1667V12.5M11.1667 5.83333L12.5 7.16667L15.1667 4.5M8.16667 3.16667C8.16667 4.63943 6.97276 5.83333 5.5 5.83333C4.02724 5.83333 2.83333 4.63943 2.83333 3.16667C2.83333 1.69391 4.02724 0.5 5.5 0.5C6.97276 0.5 8.16667 1.69391 8.16667 3.16667Z" stroke="#689E75" stroke-linecap="round" stroke-linejoin="round"/>
</svg>
